<mxfile>
    <diagram id="8-G8m03klGjSOck5nu3b" name="ページ1">
        <mxGraphModel dx="820" dy="488" grid="1" gridSize="10" guides="1" tooltips="1" connect="1" arrows="1" fold="1" page="1" pageScale="1" pageWidth="827" pageHeight="1169" math="0" shadow="0">
            <root>
                <mxCell id="0"/>
                <mxCell id="1" parent="0"/>
                <mxCell id="2" value="" style="rounded=0;whiteSpace=wrap;html=1;fillColor=#FFFFFF;strokeColor=none;" parent="1" vertex="1">
                    <mxGeometry x="120" y="40" width="540" height="410" as="geometry"/>
                </mxCell>
                <mxCell id="3" value="" style="rounded=0;whiteSpace=wrap;html=1;strokeColor=#000000;fillColor=#FFFFFF;" parent="1" vertex="1">
                    <mxGeometry x="170" y="80" width="160" height="120" as="geometry"/>
                </mxCell>
                <mxCell id="8" value="" style="triangle;whiteSpace=wrap;html=1;strokeColor=#000000;fillColor=#FFFFFF;direction=east;connectable=0;allowArrows=0;" parent="1" vertex="1">
                    <mxGeometry x="502.5" y="100" width="55" height="80" as="geometry"/>
                </mxCell>
                <mxCell id="9" value="" style="shape=singleArrow;whiteSpace=wrap;html=1;strokeColor=#000000;fillColor=#FFFFFF;" parent="1" vertex="1">
                    <mxGeometry x="180" y="280" width="100" height="60" as="geometry"/>
                </mxCell>
                <mxCell id="12" value="" style="triangle;whiteSpace=wrap;html=1;strokeColor=#000000;fillColor=#FFFFFF;direction=west;connectable=0;allowArrows=0;" parent="1" vertex="1">
                    <mxGeometry x="375" y="210" width="55" height="80" as="geometry"/>
                </mxCell>
                <mxCell id="13" value="" style="rounded=0;whiteSpace=wrap;html=1;strokeColor=#000000;fillColor=#FFFFFF;" parent="1" vertex="1">
                    <mxGeometry x="430" y="290" width="160" height="120" as="geometry"/>
                </mxCell>
                <mxCell id="14" value="" style="shape=lineEllipse;perimeter=ellipsePerimeter;whiteSpace=wrap;html=1;backgroundOutline=1;strokeColor=#000000;fillColor=#FFFFFF;" parent="1" vertex="1">
                    <mxGeometry x="389" y="120" width="50" height="50" as="geometry"/>
                </mxCell>
                <mxCell id="15" value="" style="triangle;whiteSpace=wrap;html=1;strokeColor=#000000;fillColor=#FFFFFF;direction=west;connectable=0;allowArrows=0;" parent="1" vertex="1">
                    <mxGeometry x="375" y="330" width="55" height="80" as="geometry"/>
                </mxCell>
                <mxCell id="16" value="" style="triangle;whiteSpace=wrap;html=1;strokeColor=#000000;fillColor=#FFFFFF;direction=west;connectable=0;allowArrows=0;" parent="1" vertex="1">
                    <mxGeometry x="535" y="330" width="55" height="80" as="geometry"/>
                </mxCell>
                <mxCell id="17" value="" style="triangle;whiteSpace=wrap;html=1;strokeColor=#000000;fillColor=#FFFFFF;direction=west;connectable=0;allowArrows=0;" parent="1" vertex="1">
                    <mxGeometry x="535" y="210" width="55" height="80" as="geometry"/>
                </mxCell>
                <mxCell id="18" value="" style="verticalLabelPosition=bottom;verticalAlign=top;html=1;shape=mxgraph.basic.polygon;polyCoords=[[0.26,0],[1,0],[1,0.25],[1,0.75],[1,1],[0.26,1],[0,0.8],[0,0.2]];polyline=0;fillColor=none;strokeColor=#00FF00;" parent="1" vertex="1">
                    <mxGeometry x="375" y="210" width="215" height="200" as="geometry"/>
                </mxCell>
                <mxCell id="19" value="" style="endArrow=classic;html=1;strokeColor=#000000;dashed=1;" parent="1" edge="1">
                    <mxGeometry width="50" height="50" relative="1" as="geometry">
                        <mxPoint x="563.75" y="375" as="sourcePoint"/>
                        <mxPoint x="564" y="245" as="targetPoint"/>
                        <Array as="points">
                            <mxPoint x="401.25" y="375"/>
                            <mxPoint x="401" y="245"/>
                        </Array>
                    </mxGeometry>
                </mxCell>
            </root>
        </mxGraphModel>
    </diagram>
</mxfile>